<svg width="26" height="24" viewBox="0 0 26 24" fill="none" xmlns="http://www.w3.org/2000/svg">
<path d="M17.3411 0.168223C17.3411 0.168223 17.232 0.168223 17.1835 0.168223C15.0492 0.518485 13.873 2.70178 13.7032 4.61655C13.4485 6.35618 14.2489 8.59786 16.2376 8.98314C16.5287 9.04152 16.8197 9.0065 17.1107 8.93644C19.4996 8.16587 20.5668 5.43383 20.2272 3.18047C20.1181 1.73273 18.9782 0.144872 17.3411 0.168223ZM8.28267 0.261626C6.94876 0.296653 5.91801 1.59262 5.71186 2.80686C5.26318 5.22367 6.4152 8.22424 9.02239 8.99482C9.26492 9.04152 9.51957 9.0532 9.7621 9.01817C11.5326 8.73796 12.2723 6.8232 12.1995 5.28205C12.151 3.25053 11.0475 0.903773 8.86474 0.331679C8.65859 0.284977 8.46457 0.261626 8.28267 0.261626ZM23.1376 7.12676C20.8336 7.25519 19.2571 9.46184 19.0388 11.5284C18.7357 13.0112 19.5603 15.0076 21.3186 15.1244C23.7803 15.1011 25.4537 12.5675 25.5265 10.3959C25.6841 8.95979 24.7989 7.20848 23.1376 7.12676ZM3.01979 7.61712C2.03755 7.61712 1.07956 8.17754 0.764267 9.13492C-0.0845851 11.6918 1.62525 14.9376 4.43859 15.4747C5.61485 15.6731 6.6456 14.7975 6.93664 13.7584C7.55509 11.5167 6.28181 8.92477 4.13542 7.90901C3.78376 7.7222 3.39571 7.6288 3.01979 7.6288V7.61712ZM13.3273 12.2056C11.4113 12.2056 9.45894 13.1513 8.22204 14.5406C6.876 16.1635 5.78462 18.0549 5.34807 20.1098C4.82663 21.5809 6.01502 23.2855 7.6521 23.2972C9.62871 23.3556 11.3143 22.0479 13.2788 21.9545C14.9401 21.7093 16.4317 22.5383 17.9232 23.087C19.1965 23.6124 20.9548 23.4139 21.6097 22.0946C22.119 20.7519 21.3671 19.3159 20.7487 18.125C19.4754 16.1869 18.1172 14.1437 16.0315 12.9411C15.1948 12.4391 14.261 12.2172 13.3273 12.2289V12.2056Z" fill="white"/>
</svg>
