<svg width="107" height="40" viewBox="0 0 107 40" fill="none" xmlns="http://www.w3.org/2000/svg">
<path d="M102.666 5.53752V0H0V35.8124H5.95288V39.2941H106.481V5.53752H102.666ZM2.1328 2.06036H100.528V33.759H2.13523V2.06036H2.1328Z" fill="white"/>
<path d="M38.2093 14.0159V19.9755C38.2093 21.5703 37.2946 22.6198 35.7897 22.6198C34.2848 22.6198 33.3701 21.5703 33.3701 19.9755V14.0159H31.6781L30.4482 19.0857V20.4364C30.4482 23.7516 32.4104 25.1366 34.7422 25.1366C36.4414 25.1366 37.5741 24.4019 38.2069 23.4368V24.9267H41.1287V14.0137H38.2069L38.2093 14.0159Z" fill="white"/>
<path d="M43.5645 14.0166H46.4864V15.4859H46.5528C46.8371 14.8767 48.1429 13.8066 50.1714 13.8066C52.8089 13.8066 55.6219 15.6958 55.6219 19.4719C55.6219 23.2479 52.8089 25.1395 50.1714 25.1395C48.1429 25.1395 46.8371 24.0694 46.5528 23.4602H46.4864V28.9155H43.5645V14.0142V14.0166ZM49.5814 22.6206C51.2165 22.6206 52.7426 21.5095 52.7426 19.472C52.7426 17.4345 51.2165 16.3234 49.5814 16.3234C47.9462 16.3234 46.4201 17.414 46.4201 19.472C46.4201 21.53 47.9462 22.6206 49.5814 22.6206Z" fill="white"/>
<path d="M57.513 14.0166H60.4349V16.8503C60.8283 15.171 61.9397 13.8066 63.9872 13.8066C64.248 13.8066 64.4896 13.8272 64.7504 13.8911V16.5765C64.4896 16.5354 64.2716 16.5126 64.0086 16.5126C61.807 16.5126 60.4326 17.982 60.4326 20.1655V24.9296H57.5107V14.0166H57.513Z" fill="white"/>
<path d="M66.6201 10.0283H69.542V12.5039H66.6201V10.0283ZM66.6201 14.0166H69.542V24.9296H66.6201V14.0166Z" fill="white"/>
<path d="M71.9806 14.0166H74.9025V15.5065C75.5352 14.5414 76.6679 13.8066 78.3694 13.8066C80.7013 13.8066 82.6634 15.1916 82.6634 18.5068V24.9296H79.7415V18.97C79.7415 17.3751 78.8482 16.3256 77.3219 16.3256C75.7957 16.3256 74.9023 17.3751 74.9023 18.97V24.9296H71.9805L71.9806 14.0166Z" fill="white"/>
<path d="M85.8452 21.9085V16.2614H84.2314V14.0164H85.8452V11.2236H88.7885V14.0164H91.1204V16.2614H88.7885V21.4453C88.7885 22.0111 89.1155 22.5565 90.0752 22.5565C90.3359 22.5565 90.7293 22.5154 91.144 22.3876V24.5506C90.7079 24.9294 89.8809 25.0549 89.1605 25.0549C87.241 25.0549 85.8475 24.1537 85.8475 21.9063L85.8452 21.9085Z" fill="white"/>
<path d="M30.3014 10.0283L26.6852 24.9296H23.7656L27.3796 10.0283H30.3014Z" fill="white"/>
<path d="M23.0053 18.3905C22.5242 15.3354 20.0099 13.8067 17.6378 13.8067C15.6092 13.8067 14.3035 14.8768 14.0191 15.486H13.9551V10.0283H11.0332V24.9296H13.9551V23.4603H14.0191C14.3035 24.0672 15.6115 25.1395 17.6378 25.1395C19.1733 25.1395 20.7706 24.4985 21.8346 23.2161C22.5977 22.2989 23.0882 21.0508 23.0882 19.4743C23.0882 19.0933 23.0599 18.7328 23.0053 18.3928V18.3905ZM17.05 22.6206C15.4149 22.6206 13.8887 21.53 13.8887 19.472C13.8887 17.4139 15.4149 16.3233 17.05 16.3233C18.6851 16.3233 20.2112 17.4345 20.2112 19.472C20.2112 21.5094 18.6851 22.6206 17.05 22.6206Z" fill="white"/>
</svg>
