<svg width="27" height="25" viewBox="0 0 27 25" fill="none" xmlns="http://www.w3.org/2000/svg">
<path d="M12.9632 0.167969L0.0606323 7.06813L0 9.83519H1.6492V18.9887H24.4348V9.83519H26.084V7.1265L12.9632 0.167969ZM4.08662 16.4318V7.58184L12.9632 2.82996L21.8883 7.68692L21.9125 16.3968L4.09874 16.4435L4.08662 16.4318Z" fill="white"/>
<path d="M2.59506 22.9934C2.83759 22.9934 3.49242 23.0984 3.49242 23.9391C3.49242 24.7797 2.83759 24.8848 2.59506 24.8848C2.35253 24.8848 1.6977 24.7797 1.6977 23.9391C1.6977 23.0984 2.35253 22.9934 2.59506 22.9934ZM2.59506 24.5579C2.80121 24.5579 3.10437 24.4294 3.10437 23.9391C3.10437 23.4487 2.81334 23.3086 2.59506 23.3086C2.37679 23.3086 2.08575 23.437 2.08575 23.9391C2.08575 24.4411 2.38891 24.5579 2.59506 24.5579Z" fill="white"/>
<path d="M4.59593 24.8264H4.20788V23.0401H5.05673C5.42053 23.0401 5.6388 23.2619 5.6388 23.6122C5.6388 23.7756 5.54179 24.1842 5.04461 24.1842H4.59593V24.8264ZM4.95972 23.869C5.25076 23.869 5.25076 23.6705 5.25076 23.5888C5.25076 23.4137 5.15375 23.3436 4.89909 23.3436H4.59593V23.869H4.95972Z" fill="white"/>
<path d="M6.73019 24.8264H6.33001V23.0401H7.19099C7.55479 23.0401 7.77306 23.2619 7.77306 23.6122C7.77306 23.7756 7.67605 24.1842 7.17886 24.1842H6.73019V24.8264ZM7.09398 23.869C7.38502 23.869 7.38502 23.6705 7.38502 23.5888C7.38502 23.4137 7.288 23.3436 7.04547 23.3436H6.73019V23.869H7.09398Z" fill="white"/>
<path d="M9.28887 22.9934C9.5314 22.9934 10.1862 23.0984 10.1862 23.9391C10.1862 24.7797 9.5314 24.8848 9.28887 24.8848C9.04634 24.8848 8.37938 24.7797 8.37938 23.9391C8.37938 23.0984 9.03421 22.9934 9.28887 22.9934ZM9.28887 24.5579C9.50715 24.5579 9.79818 24.4294 9.79818 23.9391C9.79818 23.4487 9.49502 23.3086 9.28887 23.3086C9.08272 23.3086 8.77956 23.437 8.77956 23.9391C8.77956 24.4411 9.07059 24.5579 9.28887 24.5579Z" fill="white"/>
<path d="M10.9017 23.0401H11.8476C12.3569 23.0401 12.4417 23.3903 12.4417 23.5538C12.4417 23.7523 12.3326 23.9157 12.1507 23.9741C12.3084 24.0441 12.3932 24.0908 12.3932 24.4294C12.3932 24.6863 12.3932 24.7563 12.4781 24.7914V24.8381H12.0416C12.0173 24.7563 12.0052 24.6629 12.0052 24.4761C12.0052 24.231 12.0052 24.1376 11.702 24.1376H11.3019V24.8381H10.9138V23.0517L10.9017 23.0401ZM11.7505 23.8223C11.9567 23.8223 12.0537 23.7639 12.0537 23.5771C12.0537 23.4837 12.0173 23.3436 11.7869 23.3436H11.3019V23.8223H11.7627H11.7505Z" fill="white"/>
<path d="M13.9212 24.8264H13.5331V23.3553H12.9632V23.0401H14.4911V23.3553H13.9212V24.8264Z" fill="white"/>
<path d="M16.6133 24.2076C16.6133 24.6746 16.3222 24.8848 15.8493 24.8848C15.6795 24.8848 15.4249 24.8381 15.2551 24.6629C15.146 24.5579 15.1096 24.4061 15.1096 24.231V23.0517H15.5097V24.2193C15.5097 24.4645 15.6674 24.5695 15.8493 24.5695C16.1161 24.5695 16.2252 24.4411 16.2252 24.231V23.0517H16.6254V24.2193L16.6133 24.2076Z" fill="white"/>
<path d="M18.5414 23.0401H18.9052V24.8264H18.5171L17.7531 23.5538H17.741V24.8264H17.3772V23.0401H17.7895L18.5292 24.2893H18.5414V23.0401Z" fill="white"/>
<path d="M20.0329 23.0401H19.6449V24.8264H20.0329V23.0401Z" fill="white"/>
<path d="M21.5972 24.8264H21.1971V23.3553H20.6271V23.0401H22.155V23.3553H21.5972V24.8264Z" fill="white"/>
<path d="M23.6587 24.8264H23.2707V24.1609L22.6159 23.0401H23.0888L23.4768 23.8223L23.8406 23.0401H24.2893L23.6587 24.1609V24.8264Z" fill="white"/>
<path d="M3.14075 20.7517H2.15851V21.1253H3.06799V21.4405H2.15851V21.9076H3.17713V22.2228H1.77046V20.4365H3.14075V20.7517Z" fill="white"/>
<path d="M5.08099 22.3512L4.86271 22.1411C4.69294 22.2345 4.49892 22.2695 4.38978 22.2695C4.14725 22.2695 3.50455 22.1644 3.50455 21.3238C3.50455 20.4832 4.14725 20.3781 4.38978 20.3781C4.63231 20.3781 5.27501 20.4832 5.27501 21.3238C5.27501 21.6273 5.20225 21.8258 5.08099 21.9659L5.28714 22.1527L5.08099 22.3629V22.3512ZM4.60806 21.5339L4.80208 21.7091C4.85058 21.6157 4.88696 21.4989 4.88696 21.3238C4.88696 20.8217 4.59593 20.705 4.37765 20.705C4.15938 20.705 3.86834 20.8334 3.86834 21.3238C3.86834 21.8141 4.15938 21.9543 4.37765 21.9543C4.43828 21.9543 4.52317 21.9426 4.5838 21.9076L4.38978 21.7324L4.59593 21.5339H4.60806Z" fill="white"/>
<path d="M7.13036 21.5923C7.13036 22.0593 6.83932 22.2695 6.36639 22.2695C6.19662 22.2695 5.94197 22.2228 5.7722 22.0477C5.67518 21.9426 5.62668 21.8025 5.62668 21.6157V20.4365H6.02685V21.5923C6.02685 21.8375 6.17237 21.9543 6.35427 21.9543C6.62105 21.9543 6.73019 21.8258 6.73019 21.6157V20.4365H7.13036V21.5923Z" fill="white"/>
<path d="M7.72456 22.2228H7.31226L7.97921 20.4365H8.42789L9.08272 22.2228H8.65829L8.53703 21.8492H7.84582L7.71243 22.2228H7.72456ZM7.95496 21.5456H8.42789L8.19749 20.8451L7.95496 21.5456Z" fill="white"/>
<path d="M9.78605 21.8959H10.7077V22.2228H9.39801V20.4365H9.78605V21.8959Z" fill="white"/>
<path d="M12.9268 21.4172V22.2228H12.5388V20.4365H12.9268V21.1136H13.6423V20.4365H14.0303V22.2228H13.6423V21.4172H12.9268Z" fill="white"/>
<path d="M15.2187 20.3897C15.4612 20.3897 16.1039 20.4948 16.1039 21.3355C16.1039 22.1761 15.4612 22.2812 15.2187 22.2812C14.9762 22.2812 14.3214 22.1761 14.3214 21.3355C14.3214 20.4948 14.9641 20.3897 15.2187 20.3897ZM15.2187 21.9543C15.4249 21.9543 15.728 21.8258 15.728 21.3238C15.728 20.8217 15.437 20.705 15.2187 20.705C15.0004 20.705 14.7094 20.8334 14.7094 21.3238C14.7094 21.8141 15.0004 21.9543 15.2187 21.9543Z" fill="white"/>
<path d="M17.9108 21.5923C17.9108 22.0593 17.6197 22.2695 17.1468 22.2695C16.977 22.2695 16.7224 22.2228 16.5526 22.0477C16.4556 21.9426 16.4071 21.8025 16.4071 21.6157V20.4365H16.8073V21.5923C16.8073 21.8375 16.9528 21.9543 17.1347 21.9543C17.4015 21.9543 17.5106 21.8258 17.5106 21.6157V20.4365H17.8987V21.5923H17.9108Z" fill="white"/>
<path d="M18.5656 21.674C18.5656 21.7791 18.6141 21.9659 18.9537 21.9659C19.1356 21.9659 19.3417 21.9192 19.3417 21.7324C19.3417 21.5923 19.1962 21.5573 19.0022 21.5106L18.796 21.4639C18.4929 21.4055 18.2018 21.3355 18.2018 20.9385C18.2018 20.74 18.311 20.3897 18.9173 20.3897C19.4872 20.3897 19.6327 20.7517 19.6327 20.9618H19.2568C19.2568 20.8801 19.2083 20.6933 18.8809 20.6933C18.7354 20.6933 18.5535 20.7517 18.5535 20.9035C18.5535 21.0436 18.6748 21.0669 18.7475 21.0903L19.1962 21.1954C19.4508 21.2537 19.6812 21.3588 19.6812 21.674C19.6812 22.2111 19.1113 22.2578 18.9537 22.2578C18.2746 22.2578 18.1654 21.8842 18.1654 21.6507H18.5414L18.5656 21.674Z" fill="white"/>
<path d="M20.3725 20.4365H19.9844V22.2228H20.3725V20.4365Z" fill="white"/>
<path d="M21.8761 20.4365H22.2278V22.2228H21.8398L21.0879 20.9502H21.0758V22.2228H20.7241V20.4365H21.1243L21.864 21.674H21.8761V20.4365Z" fill="white"/>
<path d="M23.4768 21.2654H24.2529V22.2228H23.9983L23.9619 22.001C23.8649 22.106 23.7194 22.2695 23.3798 22.2695C22.9311 22.2695 22.531 21.9659 22.531 21.3355C22.531 20.8451 22.8099 20.3897 23.4404 20.3897C24.0104 20.3897 24.2287 20.7517 24.2529 20.9969H23.8649C23.8649 20.9268 23.7315 20.705 23.4526 20.705C23.1737 20.705 22.919 20.8918 22.919 21.3471C22.919 21.8375 23.1979 21.9659 23.4526 21.9659C23.5375 21.9659 23.8285 21.9309 23.9013 21.569H23.4647V21.2771L23.4768 21.2654Z" fill="white"/>
<path d="M17.2196 8.07221H8.50065V10.8276H17.2196V8.07221Z" fill="white"/>
<path d="M17.2196 11.8901H8.50065V14.6455H17.2196V11.8901Z" fill="white"/>
</svg>
