<svg width="25" height="26" viewBox="0 0 25 26" fill="none" xmlns="http://www.w3.org/2000/svg">
<path d="M17.2501 20.9924C16.5347 22.4284 15.4918 23.5843 14.1094 24.4483C12.727 25.3123 11.1748 25.7442 9.42855 25.7442C7.05177 25.7442 5.01452 24.927 3.32894 23.3158C1.64337 21.6929 0.806641 19.7314 0.806641 17.4314C0.806641 15.9019 1.19469 14.5125 1.95865 13.2516C2.72262 12.0023 3.77762 10.9865 5.11153 10.2393L5.35406 11.7805C4.42033 12.3993 3.68061 13.2049 3.13492 14.1856C2.58923 15.178 2.31032 16.2405 2.31032 17.3963C2.31032 19.2877 3.00153 20.899 4.38395 22.2533C5.77849 23.6076 7.45194 24.2848 9.44068 24.2848C11.1141 24.2848 12.5814 23.7945 13.8668 22.8137C15.1522 21.833 15.989 20.5954 16.3891 19.0776L17.2622 20.9807L17.2501 20.9924ZM24.4654 21.366L19.6512 23.234L16.2072 14.9445H6.91838L5.57234 2.00817C5.57234 1.44775 5.76636 0.969058 6.17866 0.58377C6.57884 0.186806 7.06389 0 7.64596 0C8.22803 0 8.67671 0.186806 9.08901 0.58377C9.48919 0.969058 9.68321 1.43607 9.68321 1.99649C9.68321 2.55691 9.52557 3.04728 9.19815 3.40921C8.87074 3.77115 8.43418 3.95796 7.87637 3.95796L8.37355 9.29361H14.6551V11.2434H8.55545L8.82223 13.3099H17.3471L20.7789 20.899L23.7257 19.7781L24.4532 21.3543L24.4654 21.366Z" fill="white"/>
</svg>
