<svg width="405" height="678" viewBox="0 0 405 678" fill="none" xmlns="http://www.w3.org/2000/svg">
<g opacity="0.6">
<mask id="mask0_721_37" style="mask-type:luminance" maskUnits="userSpaceOnUse" x="0" y="0" width="405" height="678">
<path d="M0 0H405V677.596H0V0Z" fill="white"/>
</mask>
<g mask="url(#mask0_721_37)">
<mask id="mask1_721_37" style="mask-type:luminance" maskUnits="userSpaceOnUse" x="0" y="0" width="405" height="678">
<path d="M383.64 323.099C395.16 323.099 404.49 313.851 404.49 302.411C404.49 290.972 395.16 281.723 383.64 281.723C302.632 281.723 235.659 221.768 224.99 144.33C262.026 190.898 319.304 220.998 383.64 220.998C395.16 220.998 404.49 211.749 404.49 200.309C404.49 188.87 395.16 179.621 383.64 179.621C295.249 179.621 223.368 108.308 223.368 20.6881C223.368 9.24879 213.997 0 202.477 0C190.956 0 181.626 9.24879 181.626 20.6881C181.626 108.308 109.705 179.621 21.3545 179.621C9.79353 179.621 0.4636 188.87 0.4636 200.309C0.4636 211.749 9.79353 220.998 21.3545 220.998C85.6905 220.998 142.968 190.898 179.963 144.33C169.295 221.768 102.322 281.723 21.3545 281.723C9.79353 281.723 0.4636 290.972 0.4636 302.411C0.4636 313.851 9.79353 323.099 21.3545 323.099C85.6905 323.099 142.968 293 179.963 246.391C169.295 323.87 102.322 383.785 21.3545 383.785C9.79353 383.785 0.4636 393.074 0.4636 404.513C0.4636 415.912 9.79353 425.201 21.3545 425.201C86.664 425.201 144.672 394.169 181.626 346.303V585.838C128.892 589.733 79.2406 608.352 36.9314 640.439C27.7638 647.375 26.0195 660.356 32.9966 669.443C39.9738 678.529 53.0763 680.273 62.2439 673.337C102.768 642.629 151.284 626.403 202.477 626.403C253.67 626.403 302.145 642.629 342.71 673.337C346.482 676.176 350.944 677.556 355.366 677.556C361.613 677.556 367.86 674.757 371.957 669.443C378.934 660.356 377.19 647.375 368.022 640.439C325.713 608.392 276.062 589.733 223.368 585.838V346.303C260.322 394.169 318.33 425.201 383.64 425.201C395.16 425.201 404.49 415.912 404.49 404.513C404.49 393.074 395.16 383.785 383.64 383.785C302.632 383.785 235.659 323.87 224.99 246.391C262.026 293 319.304 323.099 383.64 323.099Z" fill="white"/>
</mask>
<g mask="url(#mask1_721_37)">
<path d="M0.4636 0V677.596H404.49V0H0.4636Z" fill="#F0EFEA"/>
</g>
</g>
<mask id="mask2_721_37" style="mask-type:luminance" maskUnits="userSpaceOnUse" x="1" y="38" width="74" height="74">
<path d="M1.77988 38.7427H74.4722V111.435H1.77988V38.7427Z" fill="white"/>
</mask>
<g mask="url(#mask2_721_37)">
<mask id="mask3_721_37" style="mask-type:luminance" maskUnits="userSpaceOnUse" x="2" y="48" width="64" height="63">
<path d="M65.2281 79.5637C65.2281 83.6608 64.4168 87.5956 62.8348 91.4087C61.2528 95.1812 59.0217 98.5075 56.101 101.428C53.1803 104.308 49.8135 106.539 46.0004 108.121C42.1873 109.663 38.2119 110.474 34.0743 110.474C29.9367 110.474 25.9613 109.663 22.1482 108.121C18.3351 106.539 14.9682 104.308 12.0475 101.428C9.12686 98.5075 6.89579 95.1812 5.31375 91.4087C3.73172 87.5956 2.92043 83.6608 2.92043 79.5637C2.92043 75.4667 3.73172 71.5319 5.31375 67.7594C6.89579 63.9463 9.12686 60.6199 12.0475 57.7398C14.9682 54.8191 18.3351 52.5881 22.1482 51.0466C25.9613 49.4646 29.9367 48.6938 34.0743 48.6938C38.2119 48.6938 42.1873 49.4646 46.0004 51.0466C49.8135 52.5881 53.1803 54.8191 56.101 57.7398C59.0217 60.6199 61.2528 63.9463 62.8348 67.7594C64.4168 71.5319 65.2281 75.4667 65.2281 79.5637Z" fill="white"/>
</mask>
<g mask="url(#mask3_721_37)">
<path d="M2.92043 48.6938V110.474H65.2281V48.6938H2.92043Z" fill="#F0EFEA"/>
</g>
</g>
</g>
</svg>
