<svg width="55" height="91" viewBox="0 0 55 91" fill="none" xmlns="http://www.w3.org/2000/svg">
<mask id="mask0_655_317" style="mask-type:luminance" maskUnits="userSpaceOnUse" x="0" y="0" width="55" height="91">
<path d="M0 0H54.3908V91H0V0Z" fill="white"/>
</mask>
<g mask="url(#mask0_655_317)">
<mask id="mask1_655_317" style="mask-type:luminance" maskUnits="userSpaceOnUse" x="0" y="0" width="55" height="91">
<path d="M51.5224 43.3917C53.0696 43.3917 54.3225 42.1496 54.3225 40.6133C54.3225 39.077 53.0696 37.8349 51.5224 37.8349C40.6431 37.8349 31.6488 29.7831 30.2161 19.3833C35.1899 25.6373 42.8822 29.6796 51.5224 29.6796C53.0696 29.6796 54.3225 28.4375 54.3225 26.9012C54.3225 25.3649 53.0696 24.1228 51.5224 24.1228C39.6516 24.1228 29.9981 14.5456 29.9981 2.77838C29.9981 1.2421 28.7397 0 27.1925 0C25.6453 0 24.3924 1.2421 24.3924 2.77838C24.3924 14.5456 14.7334 24.1228 2.86811 24.1228C1.31549 24.1228 0.0625 25.3649 0.0625 26.9012C0.0625 28.4375 1.31549 29.6796 2.86811 29.6796C11.5083 29.6796 19.2006 25.6373 24.169 19.3833C22.7362 29.7831 13.7419 37.8349 2.86811 37.8349C1.31549 37.8349 0.0625 39.077 0.0625 40.6133C0.0625 42.1496 1.31549 43.3917 2.86811 43.3917C11.5083 43.3917 19.2006 39.3494 24.169 33.0899C22.7362 43.4952 13.7419 51.5416 2.86811 51.5416C1.31549 51.5416 0.0625 52.7892 0.0625 54.3254C0.0625 55.8563 1.31549 57.1038 2.86811 57.1038C11.6391 57.1038 19.4294 52.9362 24.3924 46.5078V78.6771C17.3102 79.2001 10.6421 81.7006 4.96007 86.0098C3.72887 86.9414 3.49461 88.6847 4.43163 89.905C5.36865 91.1253 7.12829 91.3596 8.35949 90.428C13.8018 86.304 20.3174 84.1249 27.1925 84.1249C34.0676 84.1249 40.5778 86.304 46.0256 90.428C46.5322 90.8093 47.1315 90.9945 47.7253 90.9945C48.5642 90.9945 49.4032 90.6186 49.9534 89.905C50.8904 88.6847 50.6562 86.9414 49.425 86.0098C43.7429 81.7061 37.0748 79.2001 29.9981 78.6771V46.5078C34.9611 52.9362 42.7514 57.1038 51.5224 57.1038C53.0696 57.1038 54.3225 55.8563 54.3225 54.3254C54.3225 52.7892 53.0696 51.5416 51.5224 51.5416C40.6431 51.5416 31.6488 43.4952 30.2161 33.0899C35.1899 39.3494 42.8822 43.3917 51.5224 43.3917Z" fill="white"/>
</mask>
<g mask="url(#mask1_655_317)">
<path d="M0.0625 0V91H54.3225V0H0.0625Z" fill="#5F3C33"/>
</g>
</g>
<mask id="mask2_655_317" style="mask-type:luminance" maskUnits="userSpaceOnUse" x="0" y="5" width="11" height="10">
<path d="M0.239258 5.20312H10.0017V14.9656H0.239258V5.20312Z" fill="white"/>
</mask>
<g mask="url(#mask2_655_317)">
<mask id="mask3_655_317" style="mask-type:luminance" maskUnits="userSpaceOnUse" x="0" y="6" width="9" height="9">
<path d="M8.76039 10.6853C8.76039 11.2356 8.65144 11.764 8.43897 12.2761C8.22651 12.7827 7.92688 13.2294 7.53464 13.6217C7.1424 14.0085 6.69023 14.3081 6.17814 14.5206C5.66605 14.7276 5.13216 14.8365 4.57649 14.8365C4.02081 14.8365 3.48693 14.7276 2.97483 14.5206C2.46274 14.3081 2.01057 14.0085 1.61833 13.6217C1.22609 13.2294 0.926463 12.7827 0.713998 12.2761C0.501534 11.764 0.392578 11.2356 0.392578 10.6853C0.392578 10.1351 0.501534 9.60666 0.713998 9.10002C0.926463 8.58792 1.22609 8.1412 1.61833 7.75441C2.01057 7.36217 2.46274 7.06254 2.97483 6.85552C3.48693 6.64306 4.02081 6.53955 4.57649 6.53955C5.13216 6.53955 5.66605 6.64306 6.17814 6.85552C6.69023 7.06254 7.1424 7.36217 7.53464 7.75441C7.92688 8.1412 8.22651 8.58792 8.43897 9.10002C8.65144 9.60666 8.76039 10.1351 8.76039 10.6853Z" fill="white"/>
</mask>
<g mask="url(#mask3_655_317)">
<path d="M0.392578 6.53955V14.8365H8.76039V6.53955H0.392578Z" fill="#5F3C33"/>
</g>
</g>
</svg>
